<svg xmlns="http://www.w3.org/2000/svg" enable-background="new 0 0 512 512" viewBox="0 0 512 512" id="computer-wallpaper"><g><path fill="#e59a48" d="M496,126.59v195.82c0,18.28-14.81,33.09-33.09,33.09H49.09C30.81,355.5,16,340.69,16,322.41V126.59
		c0-18.28,14.81-33.09,33.09-33.09h413.82C481.19,93.5,496,108.31,496,126.59z"></path><path fill="#fff" d="M496,297.97v24.44c0,18.28-14.81,33.09-33.09,33.09H49.09C30.81,355.5,16,340.69,16,322.41v-27.19
		l140.3-134.57c12.16-11.66,31.5-11.13,42.99,1.18l3.08,3.29l3.14,3.36L290,259l2.36-2.44l17.24-17.82l43.16-44.63
		c11.9-12.3,31.63-12.27,43.49,0.07L496,297.97z"></path><path fill="#fbd8db" d="M346.24,310.15c-4.99,4.56-11.36,6.67-17.63,6.38c-6.26-0.27-12.42-2.95-16.98-7.95l-102.5-112.24
		c-7.14-7.81-8.27-18.99-3.62-27.86L290,259l2.36-2.44l2.41,2.65l19.85-20.02l33.19,36.35
		C356.93,285.53,356.23,301.03,346.24,310.15z"></path><path fill="#3f4c3c" d="M462.91,78.5H49.09C22.53,78.5,1,100.03,1,126.59v195.82c0,26.56,21.53,48.09,48.09,48.09H390
		c8.28,0,15-6.72,15-15l0,0c0-8.28-6.72-15-15-15H49.09c-9.99,0-18.09-8.1-18.09-18.09V126.59c0-9.99,8.1-18.09,18.09-18.09h413.82
		c9.99,0,18.09,8.1,18.09,18.09v195.82c0,9.99-8.1,18.09-18.09,18.09H461c-8.28,0-15,6.72-15,15l0,0c0,8.28,6.72,15,15,15h1.91
		c26.56,0,48.09-21.53,48.09-48.09V126.59C511,100.03,489.47,78.5,462.91,78.5z"></path><path fill="#3f4c3c" d="M496,312.93c-3.89,0-7.77-1.5-10.71-4.5L385.4,206.57c-0.11-0.12-0.23-0.24-0.34-0.36
		c-2.69-2.93-6.35-4.57-10.33-4.62c-3.99-0.07-7.68,1.49-10.45,4.33l-62.84,64.75c-5.77,5.95-15.27,6.09-21.21,0.32
		c-5.94-5.77-6.09-15.27-0.32-21.21l62.84-64.75c8.31-8.56,19.87-13.44,31.79-13.44c0.2,0,0.4,0,0.6,0
		c12.04,0.17,23.62,5.31,31.82,14.13l99.74,101.71c5.8,5.92,5.71,15.41-0.21,21.21C503.58,311.51,499.79,312.93,496,312.93z"></path><path fill="#3f4c3c" d="M318.17,307.85c-4.06,0-8.1-1.63-11.06-4.86L188.31,174.05c-2.68-2.91-6.34-4.55-10.31-4.6
		c-3.97-0.03-7.68,1.49-10.44,4.33c-0.15,0.15-0.3,0.3-0.46,0.45L26.31,307.43c-6.02,5.69-15.51,5.43-21.21-0.59
		c-5.69-6.02-5.43-15.51,0.59-21.21l140.58-132.99c8.43-8.55,20.12-13.38,32.13-13.19c12.13,0.16,23.79,5.38,32,14.31l118.82,128.95
		c5.6,6.1,5.19,15.59-0.91,21.19C325.43,306.55,321.79,307.85,318.17,307.85z"></path><rect width="79" height="63" x="218" y="355.5" fill="#fbd8db"></rect><path fill="#3f4c3c" d="M312,433.5H203v-93h109V433.5z M233,403.5h49v-33h-49V403.5z"></path><path fill="#3f4c3c" d="M329.5,433.5h-147c-8.28,0-15-6.72-15-15s6.72-15,15-15h147c8.28,0,15,6.72,15,15S337.78,433.5,329.5,433.5z"></path></g></svg>